<svg width="107" height="100" viewBox="0 0 107 100" fill="none" xmlns="http://www.w3.org/2000/svg">
<g clip-path="url(#clip0_317_132)">
<path d="M53.4623 99.9295C82.9887 99.9295 106.925 77.5595 106.925 49.9648C106.925 22.37 82.9887 0 53.4623 0C23.9359 0 0 22.37 0 49.9648C0 77.5595 23.9359 99.9295 53.4623 99.9295Z" fill="#7D2AE7"/>
<path d="M53.4623 99.9295C82.9887 99.9295 106.925 77.5595 106.925 49.9648C106.925 22.37 82.9887 0 53.4623 0C23.9359 0 0 22.37 0 49.9648C0 77.5595 23.9359 99.9295 53.4623 99.9295Z" fill="url(#paint0_radial_317_132)"/>
<path d="M53.4623 99.9295C82.9887 99.9295 106.925 77.5595 106.925 49.9648C106.925 22.37 82.9887 0 53.4623 0C23.9359 0 0 22.37 0 49.9648C0 77.5595 23.9359 99.9295 53.4623 99.9295Z" fill="url(#paint1_radial_317_132)"/>
<path d="M53.4623 99.9295C82.9887 99.9295 106.925 77.5595 106.925 49.9648C106.925 22.37 82.9887 0 53.4623 0C23.9359 0 0 22.37 0 49.9648C0 77.5595 23.9359 99.9295 53.4623 99.9295Z" fill="url(#paint2_radial_317_132)"/>
<path d="M53.4623 99.9295C82.9887 99.9295 106.925 77.5595 106.925 49.9648C106.925 22.37 82.9887 0 53.4623 0C23.9359 0 0 22.37 0 49.9648C0 77.5595 23.9359 99.9295 53.4623 99.9295Z" fill="url(#paint3_radial_317_132)"/>
<path d="M94.0976 54.497C93.9576 54.497 93.8299 54.5817 93.764 54.7588C92.9192 57.012 91.7778 58.3521 90.8381 58.3521C90.2983 58.3521 90.0799 57.7899 90.0799 56.9081C90.0799 54.7014 91.4932 50.0218 92.2062 47.8884C92.2887 47.6301 92.3422 47.3992 92.3422 47.2027C92.3422 46.5827 91.9795 46.2783 91.0812 46.2783C90.1127 46.2783 89.0703 46.6327 88.0566 48.2927C87.7063 46.8291 86.6472 46.1897 85.1678 46.1897C83.4575 46.1897 81.8051 47.2181 80.4452 48.8858C79.0854 50.5533 77.4863 51.1004 76.2832 50.8307C77.1485 48.851 77.4699 47.372 77.4699 46.2746C77.4699 44.5529 76.5591 43.5132 75.0881 43.5132C72.8503 43.5132 71.5607 45.5081 71.5607 47.6071C71.5607 49.2285 72.3476 50.896 74.0785 51.7049C72.6279 54.7705 70.5098 57.5435 69.7063 57.5435C68.6679 57.5435 68.3627 52.7949 68.4204 49.3978C68.4574 47.449 68.6306 47.349 68.6306 46.7598C68.6306 46.4208 68.3957 46.1897 67.4521 46.1897C65.2514 46.1897 64.5715 47.9307 64.4685 49.9295C64.4353 50.6891 64.308 51.4425 64.0894 52.1748C63.1704 55.2403 61.2748 57.5665 60.0386 57.5665C59.4657 57.5665 59.3092 57.0311 59.3092 56.3303C59.3092 54.1236 60.6319 51.3659 60.6319 49.0128C60.6319 47.2836 59.8201 46.1899 58.2914 46.1899C56.4905 46.1899 54.1087 48.1925 51.8545 51.9437C52.5962 49.0707 52.9014 46.2899 50.7047 46.2899C50.2282 46.2966 49.7604 46.4102 49.3407 46.6212C49.2 46.683 49.0824 46.7829 49.003 46.9078C48.9237 47.0327 48.8863 47.177 48.8956 47.322C49.1058 50.3801 46.2583 58.2136 43.5591 58.2136C43.0687 58.2136 42.8297 57.7167 42.8297 56.9157C42.8297 54.7051 44.239 50.0372 44.9478 47.8998C45.0383 47.6224 45.0881 47.3836 45.0881 47.1758C45.0881 46.5903 44.7005 46.2899 43.8228 46.2899C42.8585 46.2899 41.8119 46.6327 40.8024 48.2927C40.4479 46.8291 39.3888 46.1897 37.9094 46.1897C35.4823 46.1897 32.7706 48.5894 31.5797 51.7165C29.9848 55.8913 26.7706 59.9236 22.4437 59.9236C18.5165 59.9236 16.4437 56.8695 16.4437 52.0437C16.4437 45.0768 21.9162 39.3846 25.9753 39.3846C27.9162 39.3846 28.8434 40.5399 28.8434 42.3116C28.8434 44.4567 27.5618 45.4541 27.5618 46.2707C27.5618 46.521 27.7844 46.7675 28.2252 46.7675C29.989 46.7675 32.0659 44.8303 32.0659 42.1884C32.0659 39.5462 29.7706 37.613 25.7116 37.613C19.0028 37.613 12.2527 43.9214 12.2527 52.0053C12.2527 58.437 15.6483 62.3151 21.5205 62.3151C25.526 62.3151 29.0248 59.4037 30.912 56.0067C31.1265 58.822 32.4945 60.2933 34.5797 60.2933C36.4341 60.2933 37.934 59.2612 39.0796 57.4472C39.5207 59.3458 40.6909 60.274 42.2117 60.274C43.9547 60.274 45.4135 59.2419 46.8022 57.324C46.7817 58.8299 47.1484 60.2472 48.5453 60.2472C49.2046 60.2472 49.9917 60.1045 50.132 59.5653C51.6031 53.8809 55.2377 49.2399 56.3504 49.2399C56.6801 49.2399 56.7706 49.5366 56.7706 49.887C56.7706 51.4315 55.6044 54.5972 55.6044 56.6193C55.6044 58.8027 56.5977 60.2472 58.6499 60.2472C60.9247 60.2472 63.2364 57.6435 64.7775 53.8386C65.2599 57.3933 66.3025 60.2624 67.9342 60.2624C69.9369 60.2624 73.4932 56.3226 75.6486 52.1516C76.4932 52.2518 77.7624 52.2248 78.9822 51.4199C78.463 52.6484 78.1582 53.9927 78.1582 55.3366C78.1582 59.2073 80.136 60.2933 81.8379 60.2933C83.6883 60.2933 85.1884 59.2612 86.338 57.4472C86.7172 59.084 87.6856 60.2701 89.4659 60.2701C92.2515 60.2701 94.6705 57.6088 94.6705 55.4252C94.6705 54.8476 94.4068 54.497 94.0976 54.497ZM36.2776 58.148C35.1524 58.148 34.7116 57.089 34.7116 55.51C34.7116 52.7679 36.7185 48.1886 38.8408 48.1886C39.768 48.1886 40.1182 49.2092 40.1182 50.4571C40.1182 53.2415 38.2104 58.148 36.2776 58.148ZM74.8119 49.9642C74.1402 49.2169 73.8972 48.2002 73.8972 47.2951C73.8972 46.1783 74.334 45.2346 74.8572 45.2346C75.3806 45.2346 75.5414 45.7161 75.5414 46.3862C75.5414 47.5069 75.1127 49.1437 74.8119 49.9642ZM83.5358 58.148C82.411 58.148 81.97 56.9311 81.97 55.51C81.97 52.8642 83.9769 48.1886 86.1156 48.1886C87.0428 48.1886 87.3724 49.2016 87.3724 50.4571C87.3724 53.2415 85.4974 58.148 83.5358 58.148Z" fill="white"/>
</g>
<defs>
<radialGradient id="paint0_radial_317_132" cx="0" cy="0" r="1" gradientUnits="userSpaceOnUse" gradientTransform="translate(20.6226 88.5696) rotate(-47.4922) scale(79.6217 80.2724)">
<stop stop-color="#6420FF"/>
<stop offset="1" stop-color="#6420FF" stop-opacity="0"/>
</radialGradient>
<radialGradient id="paint1_radial_317_132" cx="0" cy="0" r="1" gradientUnits="userSpaceOnUse" gradientTransform="translate(28.3067 11.3602) rotate(52.8554) scale(89.2388 91.0793)">
<stop stop-color="#00C4CC"/>
<stop offset="1" stop-color="#00C4CC" stop-opacity="0"/>
</radialGradient>
<radialGradient id="paint2_radial_317_132" cx="0" cy="0" r="1" gradientUnits="userSpaceOnUse" gradientTransform="translate(20.6533 88.5691) rotate(-43.2582) scale(79.0506 36.2901)">
<stop stop-color="#6420FF"/>
<stop offset="1" stop-color="#6420FF" stop-opacity="0"/>
</radialGradient>
<radialGradient id="paint3_radial_317_132" cx="0" cy="0" r="1" gradientUnits="userSpaceOnUse" gradientTransform="translate(43.7265 13.4642) rotate(65.0705) scale(79.5737 139.428)">
<stop stop-color="#00C4CC"/>
<stop offset="1" stop-color="#00C4CC" stop-opacity="0"/>
</radialGradient>
<clipPath id="clip0_317_132">
<rect width="107" height="100" fill="white"/>
</clipPath>
</defs>
</svg>
