<svg width="110" height="100" viewBox="0 0 110 100" fill="none" xmlns="http://www.w3.org/2000/svg">
<path d="M58.7812 50C58.7812 41.9438 65.7869 35.4188 74.4219 35.4188C83.0637 35.4188 90.0625 41.9375 90.0625 50C90.0625 58.0563 83.0637 64.5813 74.4219 64.5813C65.7937 64.5813 58.7812 58.0625 58.7812 50Z" fill="#1ABCFE"/>
<path d="M27.5 79.1687C27.5 71.1125 34.5056 64.5812 43.1406 64.5812H58.7813V79.1687C58.7813 87.2187 51.7756 93.75 43.1406 93.75C34.5056 93.75 27.5 87.2187 27.5 79.1687Z" fill="#0ACF83"/>
<path d="M58.7812 6.25V35.4187H74.4219C83.0637 35.4187 90.0625 28.8875 90.0625 20.8312C90.0625 12.7812 83.0637 6.25 74.4219 6.25H58.7812Z" fill="#FF7262"/>
<path d="M27.5 20.8312C27.5 28.8875 34.5056 35.4187 43.1406 35.4187H58.7813V6.25H43.1406C34.5056 6.25 27.5 12.7812 27.5 20.8312Z" fill="#F24E1E"/>
<path d="M27.5 50C27.5 58.0563 34.5056 64.5813 43.1406 64.5813H58.7813V35.4188H43.1406C34.5056 35.4188 27.5 41.9375 27.5 50Z" fill="#A259FF"/>
</svg>
