<svg width="107" height="100" viewBox="0 0 107 100" fill="none" xmlns="http://www.w3.org/2000/svg">
<path d="M91.8804 100H15.1196C13.1934 100 11.6304 98.5393 11.6304 96.7391V3.26094C11.6304 1.46074 13.1934 0 15.1196 0H63.9674C64.8919 0 65.7801 0.343945 66.4342 0.955469L94.3472 27.0424C95.0015 27.6537 95.3696 28.4836 95.3696 29.3479V96.7391C95.3696 98.5393 93.8066 100 91.8804 100Z" fill="#167EE6"/>
<path d="M66.4342 0.955469C65.7801 0.343945 64.8919 0 63.9674 0H53.5V100H91.8804C93.8066 100 95.3696 98.5393 95.3696 96.7391V29.3479C95.3696 28.4838 95.0016 27.6537 94.3472 27.0424L66.4342 0.955469Z" fill="#2860CC"/>
<path d="M94.3478 27.0428L66.4342 0.955469C65.7799 0.34375 64.8919 0 63.9663 0H60.4781L60.4784 29.3478C60.4784 31.1486 62.0405 32.6088 63.9676 32.6088H95.3696V29.3478C95.3696 28.4832 95.002 27.6541 94.3478 27.0428Z" fill="#167EE6"/>
<path d="M56.9892 80.4347H29.076C27.1498 80.4347 25.5868 78.974 25.5868 77.1738C25.5868 75.3736 27.1498 73.9128 29.076 73.9128H56.989C58.9152 73.9128 60.4782 75.3736 60.4782 77.1738C60.4782 78.9742 58.9154 80.4347 56.9892 80.4347Z" fill="white"/>
<path d="M56.9892 73.9131H53.5V80.4348H56.9892C58.9154 80.4348 60.4784 78.974 60.4784 77.1738C60.4782 75.3736 58.9154 73.9131 56.9892 73.9131Z" fill="#E6F3FF"/>
<path d="M77.924 67.3913H29.076C27.1498 67.3913 25.5868 65.9305 25.5868 64.1303C25.5868 62.3301 27.1498 60.8694 29.076 60.8694H77.924C79.8502 60.8694 81.4132 62.3301 81.4132 64.1303C81.413 65.9307 79.8502 67.3913 77.924 67.3913Z" fill="white"/>
<path d="M77.924 60.8695H53.5V67.3912H77.924C79.8502 67.3912 81.4132 65.9304 81.4132 64.1302C81.413 62.3302 79.8502 60.8695 77.924 60.8695Z" fill="#E6F3FF"/>
<path d="M77.924 54.3478H29.076C27.1498 54.3478 25.5868 52.8871 25.5868 51.0869C25.5868 49.2867 27.1498 47.8259 29.076 47.8259H77.924C79.8502 47.8259 81.4132 49.2867 81.4132 51.0869C81.413 52.8871 79.8502 54.3478 77.924 54.3478Z" fill="white"/>
<path d="M77.924 47.8262H53.5V54.3478H77.924C79.8502 54.3478 81.4132 52.8871 81.4132 51.0869C81.413 49.2867 79.8502 47.8262 77.924 47.8262Z" fill="#E6F3FF"/>
</svg>
