<svg width="108" height="100" viewBox="0 0 108 100" fill="none" xmlns="http://www.w3.org/2000/svg">
<path d="M95.8696 96.7391C95.8696 98.5393 94.3066 100 92.3804 100H15.6196C13.6934 100 12.1304 98.5393 12.1304 96.7391V3.26094C12.1304 1.46074 13.6934 0 15.6196 0H64.4674C65.3919 0 66.2801 0.343945 66.9342 0.955469L94.8472 27.0424C95.5015 27.6537 95.8696 28.4836 95.8696 29.3479V96.7391Z" fill="#12B347"/>
<path d="M95.8696 96.7391V29.3512C95.8696 28.4846 95.5005 27.6537 94.8437 27.0422L66.8293 0.951367C66.175 0.342187 65.2891 0 64.3658 0H54V100H92.3804C94.3074 100 95.8696 98.54 95.8696 96.7391Z" fill="#0F993E"/>
<path d="M94.8478 27.0428L66.9342 0.955469C66.2799 0.34375 65.3919 0 64.4663 0H60.9781L60.9784 29.3478C60.9784 31.1486 62.5405 32.6088 64.4676 32.6088H95.8696V29.3478C95.8696 28.4832 95.502 27.6541 94.8478 27.0428Z" fill="#12B347"/>
<path d="M78.424 41.3043H29.576C27.6498 41.3043 26.0868 42.7651 26.0868 44.5653V83.6957C26.0868 85.4959 27.6498 86.9567 29.576 86.9567H78.424C80.3502 86.9567 81.9132 85.4959 81.9132 83.6957V44.5653C81.913 42.7651 80.3502 41.3043 78.424 41.3043ZM33.0652 60.8696H47.0218V67.3912H33.0652V60.8696ZM54 60.8696H74.9348V67.3912H54V60.8696ZM74.9348 54.3479H54V47.8262H74.9348V54.3479ZM47.0218 47.8262V54.3479H33.0652V47.8262H47.0218ZM33.0652 73.9131H47.0218V80.4348H33.0652V73.9131ZM54 80.4348V73.9131H74.9348V80.4348H54Z" fill="white"/>
<path d="M78.424 41.3043H54V47.826H74.9348V54.3477H54V60.8694H74.9348V67.391H54V73.9127H74.9348V80.4344H54V86.9561H78.424C80.3508 86.9561 81.9132 85.4961 81.9132 83.6951V44.5653C81.913 42.7643 80.3508 41.3043 78.424 41.3043Z" fill="#E6F3FF"/>
</svg>
