<svg width="107" height="100" viewBox="0 0 107 100" fill="none" xmlns="http://www.w3.org/2000/svg">
<path d="M91.8804 100H15.1196C13.1934 100 11.6304 98.5393 11.6304 96.7391V3.26094C11.6304 1.46074 13.1934 0 15.1196 0H63.9674C64.8919 0 65.7801 0.343945 66.4342 0.955469L94.3472 27.0424C95.0015 27.6537 95.3696 28.4836 95.3696 29.3479V96.7391C95.3696 98.5393 93.8066 100 91.8804 100Z" fill="#FFD500"/>
<path d="M66.4342 0.955469C65.7801 0.343945 64.8919 0 63.9674 0H53.5V100H91.8804C93.8066 100 95.3696 98.5393 95.3696 96.7391V29.3479C95.3696 28.4838 95.0016 27.6537 94.3472 27.0424L66.4342 0.955469Z" fill="#FFAA00"/>
<path d="M94.3478 27.0428L66.4342 0.955469C65.7799 0.34375 64.8919 0 63.9663 0H60.4781L60.4784 29.3478C60.4784 31.1486 62.0405 32.6088 63.9676 32.6088H95.3696V29.3478C95.3696 28.4832 95.002 27.6541 94.3478 27.0428Z" fill="#FFD500"/>
<path d="M77.924 86.9565H29.076C27.1498 86.9565 25.5868 85.4957 25.5868 83.6955V44.5653C25.5868 42.7651 27.1498 41.3043 29.076 41.3043H77.924C79.8502 41.3043 81.4132 42.7651 81.4132 44.5653V83.6957C81.413 85.4959 79.8502 86.9565 77.924 86.9565ZM32.5652 80.4348H74.4348V47.8262H32.5652V80.4348Z" fill="white"/>
<path d="M77.924 41.3043H53.5V47.826H74.4348V80.4348H53.5V86.9565H77.924C79.8502 86.9565 81.4132 85.4957 81.4132 83.6955V44.5653C81.413 42.7651 79.8502 41.3043 77.924 41.3043Z" fill="#E6F3FF"/>
</svg>
