<svg width="40" height="37" viewBox="0 0 40 37" fill="none" xmlns="http://www.w3.org/2000/svg">
<g clip-path="url(#clip0_374_64)">
<path fill-rule="evenodd" clip-rule="evenodd" d="M20 0C31.046 0 40 8.49137 40 18.9679C40 27.3466 34.276 34.4543 26.334 36.9648C25.32 37.1516 24.96 36.5593 24.96 36.0542C24.96 35.4289 24.984 33.3866 24.984 30.8484C24.984 29.0798 24.344 27.9255 23.626 27.3372C28.08 26.8673 32.76 25.2632 32.76 17.9779C32.76 15.9059 31.984 14.2151 30.7 12.8868C30.908 12.4076 31.594 10.4783 30.504 7.86611C30.504 7.86611 28.828 7.35786 25.01 9.81096C23.412 9.39101 21.7 9.17971 20 9.17231C18.3 9.17971 16.59 9.39101 14.994 9.81096C11.172 7.35786 9.492 7.86611 9.492 7.86611C8.406 10.4783 9.092 12.4076 9.298 12.8868C8.02 14.2151 7.23801 15.9059 7.23801 17.9779C7.23801 25.2447 11.908 26.8734 16.35 27.3525C15.778 27.8261 15.26 28.6616 15.08 29.8882C13.94 30.3729 11.044 31.2117 9.25999 28.3128C9.25999 28.3128 8.202 26.4903 6.194 26.3571C6.194 26.3571 4.244 26.3331 6.058 27.5097C6.058 27.5097 7.368 28.0925 8.278 30.2847C8.278 30.2847 9.45201 33.6701 15.016 32.5231C15.026 34.1086 15.044 35.6028 15.044 36.0542C15.044 36.5556 14.676 37.1423 13.678 36.9666C5.72999 34.4598 0 27.3484 0 18.9679C0 8.49137 8.956 0 20 0Z" fill="white"/>
</g>
<defs>
<clipPath id="clip0_374_64">
<rect width="40" height="37" fill="white"/>
</clipPath>
</defs>
</svg>
