<svg width="107" height="100" viewBox="0 0 107 100" fill="none" xmlns="http://www.w3.org/2000/svg">
<g clip-path="url(#clip0_311_142)">
<path fill-rule="evenodd" clip-rule="evenodd" d="M53.5 0C83.048 0 107 22.9496 107 51.2646C107 73.9096 91.6883 93.1198 70.4435 99.9048C67.731 100.41 66.768 98.8088 66.768 97.4438C66.768 95.7538 66.8322 90.234 66.8322 83.374C66.8322 78.594 65.1202 75.4743 63.1996 73.8843C75.114 72.6143 87.633 68.2789 87.633 48.5889C87.633 42.9889 85.5572 38.4191 82.1225 34.8291C82.6789 33.5341 84.5139 28.3198 81.5982 21.2598C81.5982 21.2598 77.1149 19.8861 66.9017 26.5161C62.6271 25.3811 58.0475 24.81 53.5 24.79C48.9525 24.81 44.3783 25.3811 40.109 26.5161C29.8851 19.8861 25.3911 21.2598 25.3911 21.2598C22.4861 28.3198 24.3211 33.5341 24.8722 34.8291C21.4535 38.4191 19.3617 42.9889 19.3617 48.5889C19.3617 68.2289 31.8539 72.6308 43.7363 73.9258C42.2062 75.2058 40.8205 77.4638 40.339 80.7788C37.2895 82.0888 29.5427 84.356 24.7705 76.521C24.7705 76.521 21.9403 71.5954 16.569 71.2354C16.569 71.2354 11.3527 71.1706 16.2051 74.3506C16.2051 74.3506 19.7094 75.9256 22.1437 81.8506C22.1437 81.8506 25.2841 91.0004 40.1678 87.9004C40.1946 92.1854 40.2427 96.2238 40.2427 97.4438C40.2427 98.7989 39.2583 100.385 36.5886 99.9097C15.3277 93.1347 0 73.9146 0 51.2646C0 22.9496 23.9573 0 53.5 0Z" fill="black"/>
</g>
<defs>
<clipPath id="clip0_311_142">
<rect width="107" height="100" fill="white"/>
</clipPath>
</defs>
</svg>
