<svg width="72" height="66" viewBox="0 0 72 66" fill="none" xmlns="http://www.w3.org/2000/svg">
<rect x="10" y="10" width="52" height="46" rx="10" fill="#DA7297"/>
<g clip-path="url(#clip0_344_297)">
<path fill-rule="evenodd" clip-rule="evenodd" d="M36 14C47.046 14 56 22.4914 56 32.9679C56 41.3466 50.276 48.4543 42.334 50.9648C41.32 51.1516 40.96 50.5593 40.96 50.0542C40.96 49.4289 40.984 47.3866 40.984 44.8484C40.984 43.0798 40.344 41.9255 39.626 41.3372C44.08 40.8673 48.76 39.2632 48.76 31.9779C48.76 29.9059 47.984 28.2151 46.7 26.8868C46.908 26.4076 47.594 24.4783 46.504 21.8661C46.504 21.8661 44.828 21.3579 41.01 23.811C39.412 23.391 37.7 23.1797 36 23.1723C34.3 23.1797 32.59 23.391 30.994 23.811C27.172 21.3579 25.492 21.8661 25.492 21.8661C24.406 24.4783 25.092 26.4076 25.298 26.8868C24.02 28.2151 23.238 29.9059 23.238 31.9779C23.238 39.2447 27.908 40.8734 32.35 41.3525C31.778 41.8261 31.26 42.6616 31.08 43.8882C29.94 44.3729 27.044 45.2117 25.26 42.3128C25.26 42.3128 24.202 40.4903 22.194 40.3571C22.194 40.3571 20.244 40.3331 22.058 41.5097C22.058 41.5097 23.368 42.0925 24.278 44.2847C24.278 44.2847 25.452 47.6701 31.016 46.5231C31.026 48.1086 31.044 49.6028 31.044 50.0542C31.044 50.5556 30.676 51.1423 29.678 50.9666C21.73 48.4598 16 41.3484 16 32.9679C16 22.4914 24.956 14 36 14Z" fill="white"/>
</g>
<defs>
<clipPath id="clip0_344_297">
<rect width="40" height="37" fill="white" transform="translate(16 14)"/>
</clipPath>
</defs>
</svg>
