<svg width="103" height="101" viewBox="0 0 103 101" fill="none" xmlns="http://www.w3.org/2000/svg">
<g clip-path="url(#clip0_434_232)">
<path d="M87.4251 0H16.0251C7.57514 0 0.725098 6.78289 0.725098 15.15V85.85C0.725098 94.2171 7.57514 101 16.0251 101H87.4251C95.8751 101 102.725 94.2171 102.725 85.85V15.15C102.725 6.78289 95.8751 0 87.4251 0Z" fill="white"/>
<path d="M32.2017 77.1309V49.1191L15.8657 36.6914V71.2129C15.8657 75.1582 17.8579 77.1309 21.8423 77.1309" fill="#667BC6"/>
<path d="M31.4048 48.9219L51.7251 64.1113L72.0454 48.9219V29.5898L51.7251 44.7793L31.4048 29.5898" fill="#667BC6"/>
<path d="M71.2485 77.1309V49.1191L87.5845 36.6914V71.2129C87.5845 75.1582 85.5923 77.1309 81.6079 77.1309" fill="#667BC6"/>
<path d="M15.8657 37.086L32.2017 49.5138V30.1817L26.2251 25.6446C20.8462 21.5021 15.8657 25.6446 15.8657 30.7735" fill="#667BC6"/>
<path d="M87.5845 37.086L71.2485 49.5138V30.1817L77.2251 25.6446C82.604 21.5021 87.5845 25.6446 87.5845 30.7735" fill="#667BC6"/>
</g>
<defs>
<clipPath id="clip0_434_232">
<rect width="102" height="101" fill="white" transform="translate(0.725098)"/>
</clipPath>
</defs>
</svg>
