<svg width="107" height="100" viewBox="0 0 107 100" fill="none" xmlns="http://www.w3.org/2000/svg">
<g clip-path="url(#clip0_406_97)">
<path d="M0 0H107V100H0V0Z" fill="#F7DF1E"/>
<path d="M28.1342 83.5673L36.3226 78.936C37.9023 81.5536 39.3393 83.7684 42.7862 83.7684C46.0903 83.7684 48.1734 82.5605 48.1734 77.8621V45.9097H58.2287V77.9949C58.2287 87.7282 52.1239 92.1586 43.2173 92.1586C35.1734 92.1586 30.5042 88.2651 28.134 83.5665" fill="black"/>
<path d="M63.6904 82.5603L71.8778 78.13C74.0331 81.4195 76.8343 83.8359 81.7899 83.8359C85.9563 83.8359 88.6131 81.889 88.6131 79.204C88.6131 75.9819 85.8839 74.8406 81.287 72.9617L78.7739 71.9541C71.5191 69.0682 66.7066 65.4435 66.7066 57.7909C66.7066 50.7427 72.4525 45.3724 81.431 45.3724C87.8235 45.3724 92.4203 47.4535 95.7239 52.8908L87.8948 57.5894C86.171 54.7032 84.3041 53.5622 81.4312 53.5622C78.4863 53.5622 76.6187 55.3075 76.6187 57.5894C76.6187 60.4087 78.4863 61.5502 82.7954 63.2955L85.309 64.3024C93.8563 67.726 98.6687 71.2162 98.6687 79.0697C98.6687 87.5281 91.5582 92.1594 82.0056 92.1594C72.6684 92.1594 66.6348 87.9978 63.6904 82.5603Z" fill="black"/>
</g>
<defs>
<clipPath id="clip0_406_97">
<rect width="107" height="100" fill="white"/>
</clipPath>
</defs>
</svg>
