<svg width="107" height="100" viewBox="0 0 107 100" fill="none" xmlns="http://www.w3.org/2000/svg">
<path d="M53.6663 26.3769C75.6952 10.394 64.3893 0 64.3893 0C66.0719 16.5231 46.1873 20.4245 40.857 31.7787C37.22 39.5266 43.3478 46.3103 53.6589 54.8606C52.7474 52.9669 51.3413 51.1269 49.9182 49.2641C45.0635 42.9103 40.0064 36.2913 53.6663 26.3769Z" fill="#E76F00"/>
<path d="M57.1831 58.3656C57.1831 58.3656 63.8104 53.3684 58.5621 47.815C40.7706 28.9746 78.0207 20.4245 78.0207 20.4245C55.2778 30.6641 58.6731 36.7419 64.3895 44.1256C70.5099 52.0431 57.1831 58.3656 57.1831 58.3656Z" fill="#E76F00"/>
<path d="M76.6957 73.2675C97.1103 63.5181 87.6715 54.1494 81.0833 55.4116C79.4683 55.7203 78.7484 55.9881 78.7484 55.9881C78.7484 55.9881 79.3479 55.125 80.4928 54.7512C93.5264 50.5403 103.55 67.1716 76.2854 73.7587C76.2854 73.7587 76.6014 73.4994 76.6957 73.2675Z" fill="#5382A1"/>
<path d="M34.2165 60.9278C21.4438 59.3603 41.22 55.0434 41.22 55.0434C41.22 55.0434 33.5401 54.5675 24.0947 58.7634C12.9261 63.7287 51.7214 65.9869 71.8036 61.1328C73.8914 59.8225 76.7771 58.6869 76.7771 58.6869C76.7771 58.6869 68.5592 60.0356 60.375 60.6703C50.3608 61.4412 39.6096 61.5916 34.2165 60.9278Z" fill="#5382A1"/>
<path d="M39.0765 70.2369C31.9538 69.56 36.6175 66.3872 36.6175 66.3872C18.1867 72.0091 46.8721 78.3844 72.626 71.4631C69.8885 70.5763 68.1477 68.9541 68.1477 68.9541C55.5609 71.1816 48.2872 71.1103 39.0765 70.2369Z" fill="#5382A1"/>
<path d="M42.1798 80.3097C35.0626 79.5578 39.2205 77.3356 39.2205 77.3356C22.4899 81.6319 49.3969 90.5078 70.6979 82.1178C67.2091 80.8709 64.711 79.4316 64.711 79.4316C55.209 81.0841 50.802 81.2138 42.1798 80.3097Z" fill="#5382A1"/>
<path d="M86.7325 85.4338C86.7325 85.4338 89.8094 87.7638 83.3436 89.5663C71.0483 92.9894 32.17 94.0231 21.3697 89.7028C17.4873 88.1506 24.7679 85.9966 27.0581 85.5444C29.4466 85.0685 30.8115 85.1572 30.8115 85.1572C26.4939 82.3619 2.90401 90.6459 18.829 93.0184C62.259 99.4913 97.9976 90.1035 86.7325 85.4338Z" fill="#5382A1"/>
<path d="M93.6249 90.5247C92.9124 99.0459 62.8213 100.838 43.2259 99.6856C30.4425 98.9322 27.8805 97.0494 27.843 97.0219C40.0778 98.8756 60.7054 99.2131 77.4305 96.3203C92.255 93.755 93.6249 90.5247 93.6249 90.5247Z" fill="#5382A1"/>
</svg>
