<svg width="107" height="100" viewBox="0 0 107 100" fill="none" xmlns="http://www.w3.org/2000/svg">
<g clip-path="url(#clip0_311_136)">
<path d="M105.716 47.2L58.1144 4.16875L53.5 0L17.6684 32.3937L1.284 47.2062C0.880407 47.5676 0.558741 48.0012 0.338153 48.4812C0.117565 48.9611 0.0025655 49.4776 0 50C0 51.05 0.461437 52.0563 1.284 52.8L34.0193 82.3937L53.5 100L89.3316 67.6063L89.8867 67.1063L105.716 52.7937C106.12 52.4324 106.441 51.9988 106.662 51.5188C106.882 51.0389 106.997 50.5224 107 50C106.998 49.4766 106.884 48.9589 106.663 48.4778C106.443 47.9967 106.12 47.5621 105.716 47.2ZM53.5 64.7812L37.1424 50L53.5 35.2188L69.8576 50L53.5 64.7812Z" fill="#2684FF"/>
<path d="M53.5 35.2125C50.9694 32.9443 48.9516 30.2245 47.5663 27.2142C46.1809 24.2039 45.4561 20.9644 45.4349 17.6875C45.4339 14.4097 46.1371 11.1652 47.503 8.14618C48.8689 5.1272 50.8695 2.3953 53.3863 0.112499L17.5881 32.4562L37.0688 50.0625L53.5 35.2125Z" fill="url(#paint0_linear_311_136)"/>
<path d="M69.8977 49.9625L53.5 64.7812C56.0613 67.0938 58.0876 69.8438 59.4719 72.8625C60.8536 75.8742 61.566 79.1169 61.566 82.3937C61.566 85.6706 60.8536 88.9133 59.4719 91.925C58.0876 94.9438 56.0613 97.6875 53.5 100L89.3784 67.5688L69.8977 49.9625Z" fill="url(#paint1_linear_311_136)"/>
</g>
<defs>
<linearGradient id="paint0_linear_311_136" x1="50.5776" y1="20.2563" x2="30.0397" y2="42.9774" gradientUnits="userSpaceOnUse">
<stop offset="0.18" stop-color="#0052CC"/>
<stop offset="1" stop-color="#2684FF"/>
</linearGradient>
<linearGradient id="paint1_linear_311_136" x1="1444.87" y1="3066.35" x2="2184.67" y2="2535.91" gradientUnits="userSpaceOnUse">
<stop offset="0.18" stop-color="#0052CC"/>
<stop offset="1" stop-color="#2684FF"/>
</linearGradient>
<clipPath id="clip0_311_136">
<rect width="107" height="100" fill="white"/>
</clipPath>
</defs>
</svg>
