<svg width="107" height="100" viewBox="0 0 107 100" fill="none" xmlns="http://www.w3.org/2000/svg">
<path d="M105.32 22.5832C105.359 22.7163 105.379 22.8535 105.379 22.9913V44.4186C105.379 44.9784 105.058 45.4955 104.539 45.774L85.2954 56.1283V76.6514C85.2954 77.2099 84.9778 77.7255 84.4596 78.0067L44.291 99.6176C44.199 99.6664 44.0987 99.6977 43.9984 99.7309C43.9608 99.7426 43.9253 99.7641 43.8856 99.7738C43.6048 99.8429 43.3096 99.8429 43.0288 99.7738C42.9829 99.7621 42.9411 99.7387 42.8972 99.7231C42.8053 99.6918 42.7091 99.6645 42.6214 99.6176L2.46112 78.0067C1.94184 77.7279 1.62109 77.2111 1.62109 76.6514V12.3695C1.62109 12.2289 1.64199 12.0922 1.6796 11.9594C1.69214 11.9144 1.7214 11.8734 1.73811 11.8285C1.76946 11.7465 1.79871 11.6625 1.84468 11.5864C1.87603 11.5356 1.922 11.4946 1.95961 11.4477C2.00767 11.3852 2.05155 11.3208 2.10797 11.2661C2.15603 11.2212 2.21872 11.188 2.27305 11.1489C2.33365 11.102 2.38798 11.0513 2.45694 11.0141H2.45903L22.5402 0.20871C23.0576 -0.0695699 23.6944 -0.0695699 24.2119 0.20871L44.2931 11.0141H44.2972C44.3641 11.0532 44.4205 11.102 44.4811 11.1469C44.5354 11.186 44.596 11.2212 44.6441 11.2641C44.7026 11.3208 44.7444 11.3852 44.7946 11.4477C44.8301 11.4946 44.8781 11.5356 44.9074 11.5864C44.9555 11.6645 44.9826 11.7465 45.0161 11.8285C45.0328 11.8734 45.062 11.9144 45.0746 11.9613C45.113 12.0944 45.1327 12.2316 45.1331 12.3695V52.5193L61.8667 43.5144V22.9894C61.8667 22.8527 61.8876 22.714 61.9252 22.5832C61.9398 22.5363 61.967 22.4953 61.9837 22.4504C62.0171 22.3684 62.0464 22.2844 62.0924 22.2082C62.1237 22.1574 62.1697 22.1164 62.2052 22.0696C62.2554 22.0071 62.2971 21.9426 62.3557 21.8879C62.4037 21.843 62.4643 21.8098 62.5186 21.7708C62.5813 21.7239 62.6357 21.6731 62.7025 21.636H62.7046L82.7879 10.8306C83.3052 10.5519 83.9422 10.5519 84.4596 10.8306L104.541 21.636C104.612 21.6751 104.666 21.7239 104.729 21.7688C104.781 21.8079 104.842 21.843 104.89 21.886C104.948 21.9426 104.99 22.0071 105.04 22.0696C105.078 22.1164 105.124 22.1574 105.153 22.2082C105.201 22.2844 105.228 22.3684 105.262 22.4504C105.28 22.4953 105.308 22.5363 105.32 22.5832ZM102.031 43.5144V25.6961L95.0038 29.4769L85.2954 34.701V52.5193L102.033 43.5144H102.031ZM81.9499 75.7472V57.9171L72.4004 63.0142L45.131 77.5595V95.5575L81.9499 75.7472ZM4.96865 15.0742V75.7472L41.7834 95.5555V77.5614L22.5506 67.3887L22.5444 67.3848L22.536 67.3809C22.4712 67.3458 22.4169 67.295 22.3563 67.252C22.3041 67.213 22.2435 67.1817 22.1975 67.1388L22.1933 67.1329C22.139 67.0841 22.1014 67.0236 22.0554 66.9689C22.0136 66.9161 21.9635 66.8712 21.93 66.8166L21.9279 66.8107C21.8903 66.7521 21.8673 66.6818 21.8402 66.6154C21.813 66.5568 21.7775 66.5021 21.7608 66.4396V66.4377C21.7399 66.3635 21.7357 66.2854 21.7273 66.2092C21.719 66.1506 21.7023 66.092 21.7023 66.0334V66.0295V24.0791L11.996 18.8531L4.96865 15.0762V15.0742ZM23.3781 3.36852L6.64661 12.3695L23.374 21.3704L40.1034 12.3675L23.374 3.36852H23.3781ZM32.0793 59.542L41.7855 54.3199V15.0742L34.7582 18.8551L25.0498 24.0791V63.3247L32.0793 59.542ZM83.6237 13.9904L66.8943 22.9913L83.6237 31.9923L100.351 22.9894L83.6237 13.9904ZM81.9499 34.701L72.2416 29.4769L65.2142 25.6961V43.5144L74.9205 48.7365L81.9499 52.5193V34.701ZM43.4551 74.8547L67.9934 61.7624L80.2595 55.2202L63.5426 46.2251L44.2951 56.5814L26.7529 66.0198L43.4551 74.8547Z" fill="#FF2D20"/>
</svg>
