<svg width="113" height="111" viewBox="0 0 113 111" fill="none" xmlns="http://www.w3.org/2000/svg">
<path d="M101.622 3.48267H11.3636C11.3353 3.48267 11.3035 3.48267 11.2682 3.48267C7.03425 3.48267 3.59834 6.82654 3.5489 10.9717V100.021C3.59834 104.17 7.03425 107.517 11.2682 107.517C11.3035 107.517 11.3353 107.517 11.3706 107.517H101.612C101.64 107.517 101.675 107.517 101.711 107.517C105.948 107.517 109.391 104.177 109.458 100.028V100.021V10.9786C109.391 6.82654 105.948 3.48267 101.707 3.48267C101.672 3.48267 101.64 3.48267 101.605 3.48267H101.622ZM34.9594 92.137H19.2312V42.4957H34.9594V92.137ZM27.0988 35.7039C22.0668 35.7039 17.9917 31.6975 17.9917 26.758C17.9917 21.8185 22.0703 17.8121 27.0988 17.8121C32.1273 17.8121 36.2059 21.815 36.2059 26.7545C36.2059 26.758 36.2059 26.7614 36.2059 26.7684C36.2059 31.7044 32.1308 35.7074 27.1059 35.7074C27.1023 35.7074 27.0988 35.7074 27.0953 35.7074L27.0988 35.7039ZM93.7759 92.137H78.0936V67.9979C78.0936 62.2398 77.9735 54.834 69.9223 54.834C61.7439 54.834 60.4974 61.0986 60.4974 67.5748V92.1404H44.8151V42.4992H59.8794V49.2667H60.0842C63.0081 44.4278 68.2979 41.2365 74.3469 41.2365C74.5623 41.2365 74.7742 41.24 74.9861 41.2469H74.9543C90.8449 41.2469 93.7829 51.5214 93.7829 64.8934V92.1404L93.7759 92.137Z" fill="white"/>
</svg>
