<svg width="107" height="100" viewBox="0 0 107 100" fill="none" xmlns="http://www.w3.org/2000/svg">
<path d="M65.4739 47.9688L28.462 41.875V86.9031C28.4624 87.3923 28.5659 87.8766 28.7667 88.3284C28.9674 88.7802 29.2613 89.1906 29.6317 89.5362C30.0022 89.8818 30.4418 90.1558 30.9255 90.3426C31.4093 90.5295 31.9277 90.6254 32.4511 90.625H96.3167C96.8407 90.6262 97.3598 90.5309 97.8443 90.3444C98.3288 90.158 98.7692 89.8841 99.1404 89.5384C99.5115 89.1927 99.806 88.782 100.007 88.3298C100.208 87.8776 100.312 87.3928 100.312 86.9031V70.3125L65.4739 47.9688Z" fill="#185C37"/>
<path d="M65.4739 9.375H32.4511C31.9277 9.37459 31.4093 9.47053 30.9255 9.65735C30.4418 9.84417 30.0022 10.1182 29.6317 10.4638C29.2613 10.8094 28.9674 11.2198 28.7667 11.6716C28.5659 12.1234 28.4624 12.6077 28.462 13.0969V29.6875L65.4739 50L85.0717 56.0938L100.312 50V29.6875L65.4739 9.375Z" fill="#21A366"/>
<path d="M28.462 29.6875H65.4739V50H28.462V29.6875Z" fill="#107C41"/>
<path opacity="0.1" d="M54.9512 25.625H28.462V76.4062H54.9512C56.0067 76.4013 57.0176 76.0079 57.7649 75.3113C58.5122 74.6146 58.9357 73.6708 58.9436 72.6844V29.3469C58.9357 28.3604 58.5122 27.4166 57.7649 26.72C57.0176 26.0233 56.0067 25.6299 54.9512 25.625Z" fill="black"/>
<path opacity="0.2" d="M52.7744 27.6562H28.462V78.4375H52.7744C53.8299 78.4326 54.8408 78.0392 55.5881 77.3425C56.3354 76.6459 56.7589 75.7021 56.7668 74.7156V31.3781C56.7589 30.3917 56.3354 29.4479 55.5881 28.7512C54.8408 28.0546 53.8299 27.6612 52.7744 27.6562Z" fill="black"/>
<path opacity="0.2" d="M52.7744 27.6562H28.462V74.375H52.7744C53.8299 74.3701 54.8408 73.9767 55.5881 73.28C56.3354 72.5834 56.7589 71.6396 56.7668 70.6531V31.3781C56.7589 30.3917 56.3354 29.4479 55.5881 28.7512C54.8408 28.0546 53.8299 27.6612 52.7744 27.6562Z" fill="black"/>
<path opacity="0.2" d="M50.5976 27.6562H28.462V74.375H50.5976C51.6531 74.3701 52.664 73.9767 53.4113 73.28C54.1586 72.5834 54.5821 71.6396 54.59 70.6531V31.3781C54.5821 30.3917 54.1586 29.4479 53.4113 28.7512C52.664 28.0546 51.6531 27.6612 50.5976 27.6562Z" fill="black"/>
<path d="M10.6799 27.6563H50.5976C51.655 27.6554 52.6695 28.047 53.4181 28.7449C54.1668 29.4428 54.5883 30.3899 54.5901 31.3781V68.6219C54.5883 69.6101 54.1668 70.5572 53.4181 71.2551C52.6695 71.953 51.655 72.3446 50.5976 72.3438H10.6799C10.1562 72.3446 9.6375 72.2489 9.15338 72.0623C8.66925 71.8757 8.22922 71.6017 7.85845 71.256C7.48767 70.9104 7.19341 70.4998 6.9925 70.0479C6.79158 69.5959 6.68794 69.1113 6.6875 68.6219V31.3781C6.68794 30.8887 6.79158 30.4041 6.9925 29.9521C7.19341 29.5002 7.48767 29.0896 7.85845 28.744C8.22922 28.3983 8.66925 28.1243 9.15338 27.9377C9.6375 27.7511 10.1562 27.6554 10.6799 27.6563Z" fill="url(#paint0_linear_317_292)"/>
<path d="M19.0594 62.1031L27.4555 49.9656L19.7649 37.8969H25.9408L30.1372 45.625C30.5251 46.3562 30.806 46.9 30.933 47.2625H30.9899C31.2641 46.675 31.555 46.1094 31.8593 45.5562L36.3466 37.9093H42.0309L34.143 49.9094L42.2316 62.1125H36.1827L31.3343 53.6406C31.1092 53.2764 30.9179 52.8948 30.7625 52.5H30.6823C30.5409 52.8846 30.3524 53.2527 30.1205 53.5968L25.1283 62.1031H19.0594Z" fill="white"/>
<path d="M96.3201 9.37501H65.474V29.6875H100.313V13.0969C100.312 12.6074 100.208 12.1229 100.008 11.6709C99.8066 11.2189 99.5124 10.8084 99.1416 10.4627C98.7708 10.1171 98.3308 9.8431 97.8467 9.65646C97.3625 9.46982 96.8438 9.37418 96.3201 9.37501Z" fill="#33C481"/>
<path d="M65.474 50H100.313V70.3125H65.474V50Z" fill="#107C41"/>
<defs>
<linearGradient id="paint0_linear_317_292" x1="15.0268" y1="24.7313" x2="43.1903" y2="76.9203" gradientUnits="userSpaceOnUse">
<stop stop-color="#18884F"/>
<stop offset="0.5" stop-color="#117E43"/>
<stop offset="1" stop-color="#0B6631"/>
</linearGradient>
</defs>
</svg>
