<svg width="107" height="100" viewBox="0 0 107 100" fill="none" xmlns="http://www.w3.org/2000/svg">
<path d="M63.2972 54.0625L56.7668 9.375H56.2786C44.878 9.3931 33.9488 13.6286 25.8798 21.1556C17.8108 28.6827 13.2585 38.889 13.2178 49.5438V50L63.2972 54.0625Z" fill="#ED6C47"/>
<path d="M57.255 9.375H56.7668V50L78.538 58.125L100.313 50V49.5438C100.272 38.8896 95.72 28.6837 87.6517 21.1567C79.5835 13.6298 68.6551 9.39393 57.255 9.375Z" fill="#FF8F6B"/>
<path d="M100.312 50V50.4469C100.27 61.103 95.7166 71.3104 87.6469 78.8387C79.5771 86.3671 68.6471 90.6044 57.245 90.625H56.2853C44.8837 90.6028 33.9548 86.3649 25.8854 78.8369C17.816 71.3089 13.262 61.1025 13.2178 50.4469V50H100.312Z" fill="#D35230"/>
<path opacity="0.1" d="M58.9437 29.3406V72.6875C58.9376 73.425 58.699 74.1445 58.2577 74.7559C57.8164 75.3673 57.192 75.8435 56.4626 76.125C55.9863 76.3125 55.4747 76.4092 54.9579 76.4094H23.4966C22.888 75.7594 22.2995 75.0688 21.7545 74.3781C16.2081 67.4781 13.2121 59.0801 13.2179 50.45V49.5562C13.2074 41.7717 15.6457 34.156 20.2297 27.6563C20.7079 26.9656 21.2094 26.275 21.7545 25.625H54.9579C56.0111 25.6315 57.0193 26.0248 57.765 26.7199C58.5107 27.4151 58.934 28.3563 58.9437 29.3406Z" fill="black"/>
<path opacity="0.2" d="M56.7669 31.375V74.7219C56.7667 75.2029 56.6632 75.6789 56.4626 76.1219C56.1609 76.803 55.6511 77.3859 54.9969 77.7977C54.3428 78.2096 53.5732 78.4321 52.7845 78.4375H25.4794C24.7906 77.7833 24.1296 77.1063 23.4966 76.4062C22.888 75.7563 22.2995 75.0656 21.7545 74.375C16.2081 67.475 13.2121 59.077 13.2179 50.4469V49.5531C13.208 41.7696 15.6463 34.1551 20.2297 27.6562H52.7811C53.8349 27.6628 54.8436 28.0565 55.5894 28.7523C56.3352 29.4481 56.7581 30.3902 56.7669 31.375Z" fill="black"/>
<path opacity="0.2" d="M56.7669 31.375V70.6594C56.7572 71.6437 56.3339 72.5849 55.5882 73.2801C54.8425 73.9752 53.8343 74.3685 52.7811 74.375H21.7545C16.2081 67.475 13.2121 59.077 13.2179 50.4469V49.5531C13.208 41.7696 15.6463 34.1551 20.2297 27.6562H52.7811C53.8349 27.6628 54.8436 28.0565 55.5894 28.7523C56.3352 29.4481 56.7581 30.3902 56.7669 31.375Z" fill="black"/>
<path opacity="0.2" d="M54.5901 31.375V70.6594C54.5805 71.6437 54.1571 72.5849 53.4114 73.2801C52.6658 73.9752 51.6575 74.3685 50.6043 74.375H21.7545C16.2081 67.475 13.2121 59.077 13.2179 50.4469V49.5531C13.208 41.7696 15.6463 34.1551 20.2297 27.6562H50.6043C51.6581 27.6628 52.6668 28.0565 53.4126 28.7523C54.1584 29.4481 54.5813 30.3902 54.5901 31.375Z" fill="black"/>
<path d="M10.6799 27.6563H50.5976C51.655 27.6554 52.6695 28.047 53.4181 28.7449C54.1668 29.4428 54.5883 30.3899 54.5901 31.3781V68.6219C54.5883 69.6101 54.1668 70.5572 53.4181 71.2551C52.6695 71.953 51.655 72.3446 50.5976 72.3438H10.6799C10.1562 72.3446 9.6375 72.2489 9.15338 72.0623C8.66925 71.8757 8.22922 71.6017 7.85845 71.256C7.48767 70.9104 7.19341 70.4998 6.9925 70.0479C6.79158 69.5959 6.68794 69.1113 6.6875 68.6219V31.3781C6.68794 30.8887 6.79158 30.4041 6.9925 29.9521C7.19341 29.5002 7.48767 29.0896 7.85845 28.744C8.22922 28.3983 8.66925 28.1243 9.15338 27.9377C9.6375 27.7511 10.1562 27.6554 10.6799 27.6563Z" fill="url(#paint0_linear_317_280)"/>
<path d="M31.0735 37.5875C33.672 37.4242 36.2482 38.1285 38.3428 39.575C39.2041 40.2915 39.8793 41.182 40.3173 42.1789C40.7553 43.1757 40.9446 44.2527 40.8707 45.3281C40.8999 46.843 40.4673 48.3344 39.6235 49.6281C38.7697 50.9011 37.5399 51.916 36.0824 52.55C34.4172 53.2717 32.5977 53.6287 30.7625 53.5938H25.7034V62.3438H20.534V37.5875H31.0735ZM25.7001 49.8125H30.1506C31.5617 49.9076 32.9613 49.5175 34.0862 48.7156C34.5462 48.3056 34.9044 47.8063 35.1354 47.2528C35.3665 46.6994 35.4649 46.1053 35.4237 45.5125C35.4237 42.7854 33.724 41.4208 30.3245 41.4187H25.7001V49.8125Z" fill="white"/>
<defs>
<linearGradient id="paint0_linear_317_280" x1="15.0268" y1="24.7313" x2="43.1903" y2="76.9203" gradientUnits="userSpaceOnUse">
<stop stop-color="#CA4C28"/>
<stop offset="0.5" stop-color="#C5401E"/>
<stop offset="1" stop-color="#B62F14"/>
</linearGradient>
</defs>
</svg>
