<svg width="107" height="100" viewBox="0 0 107 100" fill="none" xmlns="http://www.w3.org/2000/svg">
<path d="M96.32 9.37501H32.4511C31.9277 9.37459 31.4093 9.47054 30.9255 9.65736C30.4418 9.84418 30.0022 10.1182 29.6317 10.4638C29.2613 10.8094 28.9674 11.2198 28.7667 11.6716C28.5659 12.1234 28.4624 12.6077 28.462 13.0969V29.6875L65.4739 39.8438L100.312 29.6875V13.0969C100.312 12.6074 100.208 12.1229 100.007 11.6709C99.8066 11.2189 99.5123 10.8084 99.1415 10.4627C98.7708 10.1171 98.3307 9.8431 97.8466 9.65646C97.3625 9.46982 96.8437 9.37418 96.32 9.37501Z" fill="#41A5EE"/>
<path d="M100.312 29.6875H28.462V50L65.4739 56.0938L100.312 50V29.6875Z" fill="#2B7CD3"/>
<path d="M28.462 50V70.3125L63.2972 74.375L100.312 70.3125V50H28.462Z" fill="#185ABD"/>
<path d="M32.4511 90.625H96.3167C96.8407 90.6262 97.3598 90.5309 97.8443 90.3444C98.3288 90.158 98.7692 89.8841 99.1404 89.5384C99.5115 89.1927 99.806 88.782 100.007 88.3298C100.208 87.8776 100.312 87.3928 100.312 86.9031V70.3125H28.462V86.9031C28.4624 87.3923 28.5659 87.8766 28.7667 88.3284C28.9674 88.7802 29.2613 89.1906 29.6317 89.5362C30.0022 89.8818 30.4418 90.1558 30.9255 90.3426C31.4093 90.5295 31.9277 90.6254 32.4511 90.625Z" fill="#103F91"/>
<path opacity="0.1" d="M54.9512 25.625H28.462V76.4062H54.9512C56.0067 76.4013 57.0176 76.0079 57.7649 75.3113C58.5122 74.6146 58.9357 73.6708 58.9436 72.6844V29.3469C58.9357 28.3604 58.5122 27.4166 57.7649 26.72C57.0176 26.0233 56.0067 25.6299 54.9512 25.625Z" fill="black"/>
<path opacity="0.2" d="M52.7744 27.6562H28.462V78.4375H52.7744C53.8299 78.4326 54.8408 78.0392 55.5881 77.3425C56.3354 76.6459 56.7589 75.7021 56.7668 74.7156V31.3781C56.7589 30.3917 56.3354 29.4479 55.5881 28.7512C54.8408 28.0546 53.8299 27.6612 52.7744 27.6562Z" fill="black"/>
<path opacity="0.2" d="M52.7744 27.6562H28.462V74.375H52.7744C53.8299 74.3701 54.8408 73.9767 55.5881 73.28C56.3354 72.5834 56.7589 71.6396 56.7668 70.6531V31.3781C56.7589 30.3917 56.3354 29.4479 55.5881 28.7512C54.8408 28.0546 53.8299 27.6612 52.7744 27.6562Z" fill="black"/>
<path opacity="0.2" d="M50.5976 27.6562H28.462V74.375H50.5976C51.6531 74.3701 52.664 73.9767 53.4113 73.28C54.1586 72.5834 54.5821 71.6396 54.59 70.6531V31.3781C54.5821 30.3917 54.1586 29.4479 53.4113 28.7512C52.664 28.0546 51.6531 27.6612 50.5976 27.6562Z" fill="black"/>
<path d="M10.6799 27.6563H50.5976C51.655 27.6554 52.6695 28.047 53.4181 28.7449C54.1668 29.4428 54.5883 30.3899 54.5901 31.3781V68.6219C54.5883 69.6101 54.1668 70.5572 53.4181 71.2551C52.6695 71.953 51.655 72.3446 50.5976 72.3438H10.6799C10.1562 72.3446 9.6375 72.2489 9.15338 72.0623C8.66925 71.8757 8.22922 71.6017 7.85845 71.256C7.48767 70.9104 7.19341 70.4998 6.9925 70.0479C6.79158 69.5959 6.68794 69.1113 6.6875 68.6219V31.3781C6.68794 30.8887 6.79158 30.4041 6.9925 29.9521C7.19341 29.5002 7.48767 29.0896 7.85845 28.744C8.22922 28.3983 8.66925 28.1243 9.15338 27.9377C9.6375 27.7511 10.1562 27.6554 10.6799 27.6563Z" fill="url(#paint0_linear_317_267)"/>
<path d="M23.0719 56.2125C23.1488 56.7875 23.2023 57.2875 23.2257 57.7156H23.3193C23.3528 57.3094 23.4263 56.8188 23.5367 56.2469C23.647 55.675 23.744 55.1906 23.8343 54.7938L28.0307 37.8969H33.4609L37.8078 54.5406C38.061 55.5702 38.2419 56.614 38.3495 57.6656H38.423C38.5029 56.6419 38.6537 55.6242 38.8744 54.6188L42.3486 37.875H47.2873L41.1883 62.0875H35.4137L31.2774 46.0687C31.1571 45.6062 31.0211 45.0042 30.8695 44.2625C30.7179 43.5208 30.6243 42.9792 30.5886 42.6375H30.5184C30.4716 43.0313 30.378 43.6156 30.2375 44.3906C30.0971 45.1688 29.9868 45.7406 29.9032 46.1156L26.0144 62.0969H20.1428L14.0103 37.8969H19.0259L22.8077 54.8281C22.9206 55.2851 23.0088 55.7472 23.0719 56.2125Z" fill="white"/>
<defs>
<linearGradient id="paint0_linear_317_267" x1="15.0268" y1="24.7313" x2="43.1903" y2="76.9203" gradientUnits="userSpaceOnUse">
<stop stop-color="#2368C4"/>
<stop offset="0.5" stop-color="#1A5DBE"/>
<stop offset="1" stop-color="#1146AC"/>
</linearGradient>
</defs>
</svg>
