<svg width="107" height="100" viewBox="0 0 107 100" fill="none" xmlns="http://www.w3.org/2000/svg">
<path fill-rule="evenodd" clip-rule="evenodd" d="M29.3748 21.4532C28.4891 21.4505 27.6068 21.5556 26.75 21.7657V21.875H26.8771C27.4907 22.7407 28.1748 23.5609 28.9234 24.3282C29.4384 25.2844 29.8864 26.2375 30.398 27.1938C30.4616 27.1344 30.5251 27.0719 30.5251 27.0719C31.0001 26.7195 31.3719 26.2605 31.6057 25.7375C31.8396 25.2146 31.928 24.6448 31.8626 24.0813C31.5826 23.6778 31.3258 23.2605 31.0935 22.8313C30.709 22.2344 29.8764 21.9344 29.3648 21.4563" fill="#5D87A1"/>
<path fill-rule="evenodd" clip-rule="evenodd" d="M92.8894 73.6032C88.6715 73.3263 84.4392 73.8974 80.4774 75.2782C79.5177 75.6376 77.9863 75.6376 77.8526 76.7719C78.3675 77.2501 78.4277 78.0219 78.8791 78.6876C79.7549 80.0733 80.8804 81.3071 82.2061 82.3344C83.5436 83.2907 84.8811 84.2438 86.3022 85.0813C88.7933 86.5219 91.6121 87.3563 94.0396 88.7907C95.4507 89.6282 96.8551 90.7032 98.2662 91.6032C98.9683 92.0813 99.4131 92.8532 100.309 93.1657V92.9844C100.046 92.3203 99.7203 91.6793 99.3362 91.0688C98.6975 90.4751 98.0555 89.9344 97.4135 89.3376C95.5379 87.0197 93.2939 84.9837 90.7594 83.3001C88.7097 81.9813 84.2291 80.1751 83.4032 77.9876L83.2728 77.8657C84.7726 77.6671 86.2507 77.345 87.6899 76.9032C89.8633 76.3657 91.8461 76.4876 94.0831 75.9657C95.1096 75.7251 96.9654 75.1282 96.9654 75.1282V74.1907C95.8219 73.1282 95.0026 71.7063 93.7989 70.7032C90.524 68.0315 87.034 65.5993 83.3597 63.4282C81.3969 62.2438 78.8657 61.4813 76.7759 60.4719C76.0202 60.1157 74.7696 59.9407 74.3115 59.3469C73.2721 57.9218 72.4021 56.3951 71.7168 54.7938C69.8844 51.5438 68.1089 47.9407 66.5306 44.5032C65.5965 42.1995 64.519 39.9488 63.3039 37.7626C57.4401 28.4453 48.9761 20.7932 38.8176 15.6251C36.2544 14.4655 33.5292 13.6492 30.7224 13.2001C29.1375 13.1376 27.5592 13.0219 25.9776 12.9657C24.9566 12.3406 23.9855 11.6471 23.0719 10.8907C19.454 8.75006 10.1583 4.15006 7.49671 10.2407C5.7914 14.0876 10.0313 17.8688 11.4858 19.8219C12.7123 21.1991 13.7929 22.6842 14.7125 24.2563C15.1572 25.2626 15.2843 26.3282 15.7156 27.3813C16.6438 30.0848 17.7459 32.7333 19.0159 35.3126C19.6952 36.5873 20.4777 37.8117 21.3566 38.9751C21.8681 39.6282 22.7509 39.9126 22.9415 40.9907C22.2403 42.3993 21.7497 43.8914 21.4836 45.4251C20.3783 48.6872 19.9715 52.121 20.2865 55.5301C20.6015 58.9392 21.6321 62.257 23.3193 65.2938C24.3225 66.7719 26.7367 70.0251 29.9634 68.7813C32.8089 67.7188 32.1769 64.3469 32.9995 61.3938C33.1867 60.6782 33.063 60.2094 33.4409 59.7376V60.3126C33.4409 60.3126 35.0559 63.6282 35.8584 65.3126C38.0408 68.4032 40.7519 71.1376 43.8834 73.4063C45.1221 74.417 46.1199 75.6594 46.8125 77.0532V78.1251H48.2403C48.2106 77.6418 48.0672 77.1705 47.8204 76.7449C47.5737 76.3193 47.2295 75.9497 46.8125 75.6626C45.6417 74.5363 44.5694 73.3241 43.6059 72.0376C40.9886 68.5538 38.6804 64.876 36.7044 61.0407C35.7012 59.1657 34.8553 57.1094 34.0528 55.2376C33.685 54.5157 33.685 53.4251 33.0664 53.0501C31.9241 54.3131 30.933 55.689 30.1105 57.1532C29.112 60.1127 28.5309 63.1813 28.3818 66.2813C28.1377 66.3438 28.2581 66.2813 28.1377 66.4001C26.1682 65.9157 25.4894 63.9251 24.7471 62.2376C22.8295 57.033 22.6361 51.409 24.1921 46.1001C24.6201 44.8344 26.4758 40.8469 25.7335 39.6376C25.3624 38.4844 24.1285 37.8251 23.4531 36.9157C22.5908 35.6923 21.8488 34.3985 21.2362 33.0501C19.7683 29.6876 19.026 25.9376 17.4276 22.5501C16.5429 20.9209 15.5127 19.3643 14.3481 17.8969C13.0598 16.4311 11.9234 14.8542 10.9541 13.1876C10.6465 12.5219 10.2152 11.4344 10.7067 10.7094C10.7399 10.508 10.8424 10.3222 10.9986 10.1801C11.1549 10.0381 11.3564 9.94741 11.5727 9.92193C12.3686 9.25943 14.6523 10.1032 15.4515 10.4657C17.5994 11.2559 19.6452 12.2696 21.5505 13.4876C22.4132 14.0938 24.4462 15.6282 24.4462 15.6282H25.0481C27.0944 16.0438 29.3949 15.7438 31.3209 16.2844C34.5638 17.2947 37.6585 18.6805 40.533 20.4094C49.0049 25.4568 55.8922 32.5146 60.4918 40.8626C61.2609 42.2344 61.5852 43.4938 62.2874 44.9251C63.6249 47.8626 65.2968 50.8626 66.6343 53.7188C67.8142 56.5447 69.3402 59.2334 71.1818 61.7313C72.1381 62.9813 75.98 63.6438 77.7088 64.3001C79.21 64.7854 80.6833 65.3435 82.1225 65.9719C84.2993 67.2219 86.4694 68.6626 88.5191 70.0344C89.539 70.7532 92.7389 72.2469 92.9329 73.4438" fill="#00758F"/>
</svg>
