<svg width="107" height="100" viewBox="0 0 107 100" fill="none" xmlns="http://www.w3.org/2000/svg">
<path d="M49.1379 1.26951C51.7796 -0.14361 55.2203 -0.149993 57.8596 1.26951C71.1378 8.28157 84.4202 15.2826 97.6962 22.2989C100.193 23.6135 101.864 26.2106 101.838 28.8997V71.0869C101.857 73.8872 100.021 76.5465 97.387 77.8312C84.1524 84.8046 70.9246 91.7865 57.6923 98.7599C54.996 100.201 51.4863 100.09 48.8742 98.5309C44.9065 96.3812 40.932 94.2422 36.9638 92.0947C36.153 91.6429 35.2389 91.2833 34.6664 90.5486C35.1725 89.911 36.0775 89.8316 36.8128 89.5532C38.4691 89.061 39.9902 88.2709 41.5117 87.5043C41.8965 87.2582 42.3662 87.3525 42.735 87.5727C46.1279 89.3908 49.4908 91.2617 52.8951 93.0624C53.6213 93.4543 54.3567 92.934 54.9774 92.6106C67.9646 85.7507 80.9678 78.9167 93.9527 72.0546C94.4339 71.8383 94.6998 71.361 94.6608 70.8684C94.6699 56.9518 94.663 43.0326 94.6653 29.116C94.7203 28.5571 94.3743 28.0433 93.8336 27.8145C80.6449 20.8731 67.463 13.9209 54.2766 6.97767C54.0481 6.83088 53.7775 6.75212 53.5003 6.75174C53.223 6.75136 52.9521 6.82938 52.7232 6.97554C39.5368 13.9209 26.3572 20.8794 13.1708 27.8206C12.632 28.0497 12.2704 28.555 12.3345 29.116C12.3368 43.0326 12.3345 56.9518 12.3345 70.8706C12.3116 71.1109 12.3681 71.352 12.4963 71.5614C12.6245 71.7708 12.8183 71.9385 13.0516 72.0419C16.5705 73.9067 20.0939 75.7585 23.615 77.617C25.5987 78.6149 28.0343 79.2078 30.2198 78.4433C32.1485 77.7968 33.5004 75.9575 33.4636 74.0436C33.4818 60.2082 33.4545 46.3706 33.4772 32.5372C33.4291 31.9231 34.0525 31.4156 34.6914 31.4734C36.3822 31.4628 38.0752 31.4521 39.766 31.4777C40.4717 31.4628 40.9574 32.1241 40.8701 32.7429C40.8633 46.666 40.8883 60.5894 40.8587 74.5124C40.8633 78.2231 39.2321 82.2606 35.5596 84.0762C31.0352 86.2667 25.4431 85.8021 20.9734 83.7018C17.104 81.8968 13.4113 79.7667 9.61055 77.833C6.96932 76.5553 5.14311 73.8855 5.1617 71.0872V28.8997C5.134 26.155 6.87067 23.5106 9.4455 22.2153C22.6778 15.2362 35.9079 8.25178 49.1379 1.26951Z" fill="#8CC84B"/>
<path d="M60.6817 30.4929C66.4529 30.1458 72.6312 30.2872 77.8245 32.9443C81.8453 34.9805 84.0745 39.2539 84.1455 43.4287C84.0331 43.9919 83.4033 44.3025 82.8281 44.2638C81.1536 44.2617 79.4788 44.2851 77.8044 44.2532C77.0941 44.2787 76.6813 43.6667 76.5921 43.0798C76.111 41.0823 74.9454 39.1039 72.9336 38.1404C69.8454 36.6954 66.2647 36.7681 62.8972 36.7982C60.4389 36.9202 57.7954 37.1192 55.7127 38.4702C54.1137 39.4936 53.6281 41.5596 54.1987 43.2234C54.7368 44.4181 56.2124 44.8036 57.4197 45.1589C64.3747 46.8589 71.7448 46.6897 78.567 48.927C81.3915 49.839 84.1546 51.6121 85.1214 54.3759C86.386 58.0802 85.8317 62.5078 83.0117 65.4816C80.7249 67.9287 77.3942 69.2606 74.0723 69.9841C69.653 70.905 65.0668 70.9284 60.5789 70.5195C56.3588 70.0699 51.9673 69.0337 48.7095 66.3465C45.9237 64.0858 44.563 60.5635 44.6981 57.1638C44.7304 56.5897 45.342 56.1894 45.9305 56.2365C47.6167 56.2238 49.3029 56.2195 50.9891 56.2387C51.6626 56.1936 52.1619 56.7376 52.1965 57.3309C52.5076 59.2341 53.2729 61.2316 55.0487 62.3599C58.4757 64.4263 62.7758 64.2848 66.6999 64.3426C69.9509 64.2078 73.6003 64.167 76.2533 62.1589C77.653 61.0135 78.0677 59.0972 77.6894 57.4486C77.2796 56.0568 75.7217 55.4082 74.3838 54.9841C67.518 52.9543 60.0655 53.6908 53.2661 51.3954C50.5057 50.4837 47.8364 48.7599 46.7759 46.1096C45.2961 42.3585 45.9742 37.7188 49.0897 34.8454C52.1274 31.9872 56.5125 30.8869 60.6817 30.4929Z" fill="#8CC84B"/>
</svg>
