<svg width="107" height="100" viewBox="0 0 107 100" fill="none" xmlns="http://www.w3.org/2000/svg">
<path d="M53.5 76.2109C83.0472 76.2109 107 64.4409 107 49.9219C107 35.4028 83.0472 23.6328 53.5 23.6328C23.9528 23.6328 0 35.4028 0 49.9219C0 64.4409 23.9528 76.2109 53.5 76.2109Z" fill="url(#paint0_radial_406_104)"/>
<path d="M53.5 74.2578C81.893 74.2578 104.91 63.3622 104.91 49.9219C104.91 36.4815 81.893 25.5859 53.5 25.5859C25.107 25.5859 2.08984 36.4815 2.08984 49.9219C2.08984 63.3622 25.107 74.2578 53.5 74.2578Z" fill="#6181B6"/>
<path d="M63.9074 57.8125L66.457 45.5469C67.0421 42.7734 66.5406 40.7031 65.0359 39.4141C63.573 38.1641 61.0652 37.5391 57.3871 37.5391H52.9566L54.2105 31.4453C54.2523 31.2109 54.2105 30.9766 54.0433 30.7812C53.8761 30.5859 53.6671 30.5078 53.4163 30.5078H47.314C46.896 30.5078 46.5617 30.7813 46.4781 31.1328L43.7613 44.1406C43.5105 42.6563 42.9253 41.4062 41.9222 40.3906C40.1249 38.4766 37.3245 37.5 33.521 37.5H21.7761C21.3581 37.5 21.0238 37.7734 20.9402 38.125L15.4648 64.5312C15.423 64.7656 15.4648 65 15.632 65.1953C15.7992 65.3906 16.0081 65.4688 16.2589 65.4688H22.4031C22.821 65.4688 23.1554 65.1953 23.239 64.8438L24.5765 58.4766H29.1324C31.5148 58.4766 33.5628 58.2422 35.1093 57.7734C36.7394 57.2656 38.2023 56.4453 39.498 55.3125C40.5429 54.4141 41.4206 53.3984 42.0894 52.3047L41.0027 57.5781C40.9609 57.8125 41.0027 58.0469 41.1699 58.2422C41.337 58.4375 41.546 58.5156 41.7968 58.5156H47.8992C48.3171 58.5156 48.6515 58.2422 48.7351 57.8906L51.7445 43.4375H55.9242C57.7214 43.4375 58.223 43.75 58.3902 43.9063C58.5156 44.0234 58.7663 44.4922 58.4738 45.9375L56.0496 57.6172C56.0078 57.8516 56.0495 58.0859 56.2167 58.2812C56.3839 58.4766 56.5929 58.5547 56.8437 58.5547H63.1132C63.4894 58.4375 63.8238 58.1641 63.9074 57.8125ZM35.6527 47.6562C35.2765 49.4922 34.566 50.8203 33.521 51.5625C32.4761 52.3047 30.7624 52.6953 28.5054 52.6953H25.7886L27.7531 43.2422H31.264C33.8554 43.2422 34.9003 43.75 35.3183 44.1797C35.8617 44.8047 35.9871 46.0156 35.6527 47.6562Z" fill="white"/>
<path d="M89.9887 40.3906C88.1914 38.4766 85.391 37.5 81.5875 37.5H69.759C69.341 37.5 69.0067 37.7734 68.9231 38.125L63.4477 64.4922C63.4059 64.7266 63.4477 64.9609 63.6149 65.1563C63.7821 65.3516 63.991 65.4297 64.2418 65.4297H70.386C70.8039 65.4297 71.1383 65.1562 71.2219 64.8047L72.5594 58.4375H77.1153C79.4977 58.4375 81.5457 58.2031 83.0922 57.7344C84.7223 57.2266 86.1852 56.4062 87.4809 55.2734C88.5676 54.3359 89.4871 53.2812 90.1559 52.1484C90.8246 51.0156 91.3262 49.7656 91.6188 48.3984C92.3293 45 91.786 42.3438 89.9887 40.3906ZM83.5938 47.6562C83.2176 49.4922 82.5071 50.8203 81.4621 51.5625C80.4172 52.3047 78.7035 52.6953 76.4465 52.6953H73.7297L75.6942 43.2422H79.2051C81.7965 43.2422 82.8414 43.75 83.2594 44.1797C83.8446 44.8047 83.97 46.0156 83.5938 47.6562Z" fill="white"/>
<path d="M31.2641 42.4609C33.6047 42.4609 35.1512 42.8516 35.9453 43.6719C36.7395 44.4922 36.9066 45.8594 36.4887 47.8125C36.0707 49.8438 35.2348 51.3281 34.0227 52.1875C32.8105 53.0469 30.9715 53.4766 28.5055 53.4766H24.7855L27.0844 42.4609H31.2641ZM16.3008 64.6484H22.4449L23.9078 57.6562H29.1742C31.5148 57.6562 33.3957 57.4219 34.9004 56.9531C36.4051 56.4844 37.7426 55.7422 38.9965 54.6484C40.0414 53.75 40.8773 52.7734 41.5043 51.7188C42.1313 50.6641 42.591 49.4922 42.8418 48.2031C43.5105 45.0781 43.009 42.6563 41.3789 40.8984C39.7488 39.1406 37.1574 38.2812 33.6047 38.2812H21.7762L16.3008 64.6484Z" fill="#000004"/>
<path d="M47.3558 31.2891H53.4581L51.9952 38.2812H57.4288C60.8562 38.2812 63.1968 38.8281 64.4925 39.9609C65.7882 41.0938 66.1644 42.8906 65.6628 45.3906L63.1132 57.6562H56.9272L59.3515 45.9766C59.644 44.6484 59.5187 43.75 59.0589 43.2812C58.5991 42.8125 57.5542 42.5391 56.0077 42.5391H51.1175L47.9827 57.6562H41.8804L47.3558 31.2891Z" fill="#000004"/>
<path d="M79.205 42.4609C81.5456 42.4609 83.0921 42.8516 83.8862 43.6719C84.6804 44.4922 84.8476 45.8594 84.4296 47.8125C84.0116 49.8438 83.1757 51.3281 81.9636 52.1875C80.7515 53.0469 78.9124 53.4766 76.4464 53.4766H72.7265L75.0253 42.4609H79.205ZM64.2417 64.6484H70.3858L71.8487 57.6562H77.1151C79.4558 57.6562 81.3366 57.4219 82.8413 56.9531C84.346 56.4844 85.6835 55.7422 86.9374 54.6484C87.9823 53.75 88.8183 52.7734 89.4452 51.7188C90.0722 50.6641 90.5319 49.4922 90.7827 48.2031C91.4515 45.0781 90.9499 42.6563 89.3198 40.8984C87.6897 39.1406 85.0983 38.2812 81.5456 38.2812H69.7171L64.2417 64.6484Z" fill="#000004"/>
<defs>
<radialGradient id="paint0_radial_406_104" cx="0" cy="0" r="1" gradientUnits="userSpaceOnUse" gradientTransform="translate(32.1216 32.878) scale(70.2585 65.6622)">
<stop stop-color="white"/>
<stop offset="0.5" stop-color="#4C6B97"/>
<stop offset="1" stop-color="#231F20"/>
</radialGradient>
</defs>
</svg>
