<svg xmlns="http://www.w3.org/2000/svg" xmlns:xlink="http://www.w3.org/1999/xlink" width="1080" zoomAndPan="magnify" viewBox="0 0 810 809.999993" height="1080" preserveAspectRatio="xMidYMid meet" version="1.0"><defs><g/><clipPath id="f3147fa42d"><path d="M 527.074219 171 L 552 171 L 552 201 L 527.074219 201 Z M 527.074219 171 " clip-rule="nonzero"/></clipPath><clipPath id="74cb3908ee"><path d="M 607 165 L 645.574219 165 L 645.574219 214 L 607 214 Z M 607 165 " clip-rule="nonzero"/></clipPath></defs><path fill="#da7297" d="M 582.753906 173.792969 C 573.707031 169.773438 561.644531 177.816406 558.625 187.871094 C 555.609375 197.921875 560.636719 215.015625 573.707031 221.046875 C 586.777344 227.078125 598.839844 219.035156 593.8125 211.996094 C 576.722656 209.988281 565.664062 191.890625 570.691406 182.84375 C 575.71875 173.792969 591.804688 177.816406 582.753906 173.792969 Z M 582.753906 173.792969 " fill-opacity="1" fill-rule="nonzero"/><path fill="#da7297" d="M 604.871094 202.949219 C 615.929688 193.902344 609.898438 173.792969 600.851562 171.785156 C 591.804688 169.773438 587.78125 174.800781 594.820312 180.832031 C 603.867188 187.871094 592.808594 201.945312 585.769531 200.9375 C 585.769531 200.9375 593.8125 211.996094 604.871094 202.949219 Z M 604.871094 202.949219 " fill-opacity="1" fill-rule="nonzero"/><path fill="#da7297" d="M 585.769531 167.960938 C 595.824219 163.941406 602.863281 165.75 608.894531 171.785156 C 611.910156 162.734375 601.855469 147.65625 583.761719 145.644531 C 565.664062 143.632812 548.574219 167.761719 556.617188 179.828125 C 558.625 175.804688 570.691406 164.945312 585.769531 167.960938 Z M 585.769531 167.960938 " fill-opacity="1" fill-rule="nonzero"/><path fill="#da7297" d="M 552.59375 196.917969 C 535.503906 200.9375 533.738281 217.691406 537.515625 228.082031 C 541.535156 239.140625 538.519531 247.183594 543.546875 249.195312 C 548.304688 251.101562 564.660156 252.210938 578.734375 253.214844 C 592.808594 254.222656 603.867188 242.15625 599.84375 228.082031 C 559.632812 235.121094 552.59375 205.964844 552.59375 196.917969 Z M 552.59375 196.917969 " fill-opacity="1" fill-rule="nonzero"/><g clip-path="url(#f3147fa42d)"><path fill="#da7297" d="M 548.742188 194.738281 C 548.742188 194.738281 549.246094 188.203125 551.253906 184.683594 C 550.25 183.679688 549.246094 179.65625 549.246094 179.65625 C 549.246094 179.65625 548.238281 175.132812 548.238281 171.613281 C 540.699219 170.105469 527.628906 179.65625 527.125 181.164062 C 526.625 182.671875 529.640625 199.765625 536.175781 200.265625 C 543.210938 194.738281 548.742188 194.738281 548.742188 194.738281 Z M 548.742188 194.738281 " fill-opacity="1" fill-rule="nonzero"/></g><g clip-path="url(#74cb3908ee)"><path fill="#da7297" d="M 640.058594 180.832031 C 631.011719 161.730469 613.921875 165.75 613.921875 165.75 C 613.921875 165.75 614.925781 170.777344 612.914062 173.792969 C 622.96875 184.851562 615.929688 207.640625 607.21875 210.324219 C 637.378906 223.390625 644.082031 196.917969 645.085938 192.894531 C 646.089844 188.875 642.070312 185.859375 640.058594 180.832031 Z M 640.058594 180.832031 " fill-opacity="1" fill-rule="nonzero"/></g><path fill="#da7297" d="M 631.882812 216.960938 C 626.722656 220.617188 612.113281 219.640625 603.734375 215.28125 C 604.066406 218.632812 600.71875 223.996094 599.042969 224.332031 C 605.410156 227.011719 611.441406 238.742188 600.71875 251.140625 C 605.074219 255.496094 622.835938 252.148438 633.226562 245.441406 C 634.917969 244.351562 637.582031 233.378906 638.253906 227.011719 C 639.140625 218.582031 639.929688 211.261719 631.882812 216.960938 Z M 631.882812 216.960938 " fill-opacity="1" fill-rule="nonzero"/><path fill="#da7297" d="M 586.441406 189.542969 C 582.074219 190.734375 579.417969 188.097656 581.078125 185.1875 C 582.421875 182.84375 582.296875 180.414062 579.070312 182.171875 C 572.367188 186.195312 576.390625 197.585938 584.765625 196.582031 C 596.160156 192.558594 591.132812 182.171875 588.117188 182.507812 C 585.101562 182.839844 590.128906 188.539062 586.441406 189.542969 Z M 586.441406 189.542969 " fill-opacity="1" fill-rule="nonzero"/><g fill="#da7297" fill-opacity="1"><g transform="translate(325.360768, 688.747628)"><g><path d="M 209.875 12.71875 C 178.925781 12.71875 151.257812 7.3125 126.875 -3.5 C 102.5 -14.3125 81.722656 -29.046875 64.546875 -47.703125 C 47.378906 -66.359375 34.445312 -87.554688 25.75 -111.296875 C 17.0625 -135.035156 12.71875 -160.050781 12.71875 -186.34375 C 13.144531 -226.195312 19.609375 -260.222656 32.109375 -288.421875 C 44.617188 -316.617188 61.15625 -339.515625 81.71875 -357.109375 C 102.28125 -374.703125 124.859375 -387.523438 149.453125 -395.578125 C 174.046875 -403.640625 198.425781 -407.671875 222.59375 -407.671875 C 245.488281 -407.671875 266.898438 -404.488281 286.828125 -398.125 C 306.753906 -391.769531 323.816406 -382.972656 338.015625 -371.734375 C 352.222656 -360.492188 361.445312 -347.03125 365.6875 -331.34375 C 368.65625 -321.59375 368.65625 -311.734375 365.6875 -301.765625 C 362.71875 -291.804688 356.992188 -282.585938 348.515625 -274.109375 C 340.460938 -266.472656 331.03125 -260.851562 320.21875 -257.25 C 309.40625 -253.644531 299.335938 -251.207031 290.015625 -249.9375 C 270.929688 -247.820312 255.453125 -250.472656 243.578125 -257.890625 C 231.710938 -265.304688 225.460938 -275.160156 224.828125 -287.453125 C 224.191406 -299.753906 230.65625 -311.84375 244.21875 -323.71875 C 247.1875 -326.257812 250.257812 -330.601562 253.4375 -336.75 C 256.613281 -342.90625 258.941406 -349.476562 260.421875 -356.46875 C 261.910156 -363.46875 261.59375 -369.828125 259.46875 -375.546875 C 257.351562 -381.273438 252.691406 -385.195312 245.484375 -387.3125 C 232.765625 -390.707031 219.617188 -387.207031 206.046875 -376.8125 C 192.484375 -366.425781 180.191406 -351.800781 169.171875 -332.9375 C 158.148438 -314.070312 149.457031 -293.40625 143.09375 -270.9375 C 139.707031 -257.789062 136.738281 -241.144531 134.1875 -221 C 131.644531 -200.863281 130.796875 -179.554688 131.640625 -157.078125 C 132.492188 -134.609375 135.992188 -112.878906 142.140625 -91.890625 C 148.285156 -70.910156 158.359375 -52.578125 172.359375 -36.890625 C 182.109375 -26.285156 192.492188 -18.546875 203.515625 -13.671875 C 214.535156 -8.796875 225.132812 -6.992188 235.3125 -8.265625 C 246.757812 -9.535156 254.175781 -14.625 257.5625 -23.53125 C 260.957031 -32.4375 261.273438 -43.035156 258.515625 -55.328125 C 255.765625 -67.628906 250.890625 -79.609375 243.890625 -91.265625 C 236.898438 -102.921875 228.953125 -111.929688 220.046875 -118.296875 C 236.585938 -131.441406 252.066406 -140.875 266.484375 -146.59375 C 280.898438 -152.320312 294.039062 -155.1875 305.90625 -155.1875 C 321.59375 -155.1875 334.097656 -150.941406 343.421875 -142.453125 C 352.753906 -133.972656 358.054688 -122.84375 359.328125 -109.0625 C 360.597656 -95.289062 356.570312 -80.347656 347.25 -64.234375 C 332.832031 -40.066406 313.222656 -21.195312 288.421875 -7.625 C 263.617188 5.9375 237.4375 12.71875 209.875 12.71875 Z M 209.875 12.71875 "/></g></g></g><g fill="#da7297" fill-opacity="1"><g transform="translate(106.839922, 546.994294)"><g><path d="M 185.078125 0 L 17.8125 0 C 27.132812 -39.007812 34.128906 -74.304688 38.796875 -105.890625 C 43.460938 -137.472656 45.796875 -168 45.796875 -197.46875 C 45.796875 -226.9375 43.460938 -257.460938 38.796875 -289.046875 C 34.128906 -320.640625 27.132812 -355.941406 17.8125 -394.953125 L 185.078125 -394.953125 C 173.203125 -347.460938 165.035156 -305.484375 160.578125 -269.015625 C 156.128906 -232.554688 155.175781 -195.882812 157.71875 -159 C 158.988281 -187.40625 162.59375 -215.597656 168.53125 -243.578125 C 174.46875 -271.566406 183.050781 -297.429688 194.28125 -321.171875 C 205.519531 -344.910156 220.253906 -364.519531 238.484375 -380 C 256.722656 -395.476562 278.988281 -404.703125 305.28125 -407.671875 C 330.289062 -410.640625 350.003906 -407.882812 364.421875 -399.40625 C 378.835938 -390.925781 388.164062 -380.113281 392.40625 -366.96875 C 396.21875 -355.09375 395.472656 -342.476562 390.171875 -329.125 C 384.878906 -315.769531 375.234375 -304.003906 361.234375 -293.828125 C 347.242188 -283.648438 328.59375 -277.078125 305.28125 -274.109375 C 283.226562 -271.566406 266.160156 -275.382812 254.078125 -285.5625 C 241.992188 -295.738281 238.070312 -308.03125 242.3125 -322.4375 C 244.425781 -329.226562 245.269531 -334.847656 244.84375 -339.296875 C 244.425781 -343.753906 242.519531 -345.984375 239.125 -345.984375 C 236.582031 -345.984375 233.617188 -344.5 230.234375 -341.53125 C 220.054688 -331.769531 210.617188 -315.65625 201.921875 -293.1875 C 193.234375 -270.71875 186.238281 -244.429688 180.9375 -214.328125 C 175.632812 -184.222656 172.664062 -152.632812 172.03125 -119.5625 C 171.394531 -86.488281 173.832031 -54.265625 179.34375 -22.890625 C 180.195312 -19.078125 181.148438 -15.257812 182.203125 -11.4375 C 183.265625 -7.625 184.222656 -3.8125 185.078125 0 Z M 185.078125 0 "/></g></g></g></svg>