<svg width="107" height="100" viewBox="0 0 107 100" fill="none" xmlns="http://www.w3.org/2000/svg">
<path d="M62.4576 49.9247C62.4576 45.4422 58.4475 41.8078 53.5001 41.8078C48.5533 41.8078 44.5425 45.4422 44.5425 49.9247C44.5425 54.4078 48.5533 58.0419 53.5001 58.0419C58.4475 58.0419 62.4576 54.4078 62.4576 49.9247Z" fill="#53C1DE"/>
<path fill-rule="evenodd" clip-rule="evenodd" d="M82.592 34.8553C84.4835 27.8899 86.8613 14.9734 78.4791 10.5942C70.1362 6.23422 59.2793 14.5888 53.5465 19.6037C47.8303 14.6388 36.6686 6.3199 28.2936 10.7129C19.9539 15.0876 22.5256 27.79 24.4592 34.7991C16.6797 36.8012 3.34375 41.1137 3.34375 49.9247C3.34375 58.7106 16.6658 63.4025 24.3993 65.4028C22.4586 72.4506 20.0156 84.9716 28.3659 89.3366C36.7722 93.7287 47.8992 85.6078 53.6852 80.5381C59.4549 85.5825 70.2074 93.7566 78.552 89.3794C86.9228 84.9884 84.7427 72.245 82.809 65.1953C90.3057 63.1906 103.656 58.6009 103.656 49.9247C103.656 41.1984 90.2488 36.8509 82.592 34.8553ZM81.6417 61.4594C80.372 57.8175 78.6584 53.9447 76.5622 49.9441C78.5631 46.0378 80.2102 42.215 81.4444 38.5966C87.0575 40.0712 99.3712 43.4416 99.3712 49.9247C99.3712 56.4687 87.5548 59.8709 81.6417 61.4594ZM76.4047 86.0187C70.1786 89.2844 60.9301 81.4675 56.6692 77.7528C59.496 74.9512 62.3208 71.6944 65.0777 68.0778C69.9275 67.6881 74.5088 67.0506 78.6637 66.1803C80.0246 71.1669 82.6582 82.7384 76.4047 86.0187ZM30.5071 85.9722C24.2804 82.7188 27.1264 71.5456 28.5542 66.3541C32.6629 67.1778 37.2113 67.7703 42.0724 68.1275C44.8474 71.6662 47.7541 74.9191 50.6832 77.7678C47.0643 80.94 36.7629 89.2406 30.5071 85.9722ZM7.62873 49.9247C7.62873 43.3562 19.8688 40.0103 25.6099 38.5394C26.8654 42.2391 28.512 46.1075 30.4991 50.0194C28.4862 53.9894 26.8161 57.9191 25.5491 61.6625C20.0748 60.2425 7.62873 56.4972 7.62873 49.9247ZM30.4405 14.0736C36.6926 10.7942 46.3935 18.7807 50.5438 22.3754C47.6297 25.2111 44.7497 28.4394 41.9985 31.9578C37.2808 32.3541 32.7646 32.9903 28.6128 33.8428C27.0551 28.1897 24.1951 17.3493 30.4405 14.0736ZM68.1433 36.1784C71.3439 36.5444 74.4105 37.0312 77.2898 37.6269C76.4254 40.1375 75.3481 42.7628 74.0791 45.4541C72.2397 42.2916 70.2652 39.1925 68.1433 36.1784ZM53.5478 25.1503C55.5243 27.0905 57.5038 29.2572 59.4512 31.6078C55.5012 31.4384 51.5449 31.4378 47.5949 31.6053C49.544 29.2765 51.5406 27.1131 53.5478 25.1503ZM32.9577 45.4512C31.7097 42.7694 30.6421 40.1325 29.7701 37.5859C32.6323 37.0056 35.6845 36.5312 38.8644 36.1712C36.7364 39.1787 34.7653 42.2766 32.9577 45.4512ZM38.9557 63.9553C35.6708 63.6231 32.5723 63.1728 29.7111 62.6084C30.5968 60.0172 31.688 57.3234 32.9626 54.5837C34.7951 57.7916 36.7963 60.9194 38.9557 63.9553ZM53.6665 74.9734C51.6355 72.9875 49.6095 70.7909 47.6311 68.4284C51.6034 68.5697 55.5835 68.57 59.5555 68.4094C57.6021 70.815 55.6296 73.0147 53.6665 74.9734ZM74.1199 54.4444C75.4607 57.2137 76.5909 59.8928 77.4887 62.4403C74.58 63.0419 71.4399 63.5262 68.1312 63.8859C70.2689 60.8147 72.2748 57.6675 74.1199 54.4444ZM62.6863 64.3566C56.61 64.75 50.496 64.7456 44.4177 64.3887C40.9639 59.8172 37.8894 55.0094 35.2354 50.0181C37.8767 45.0372 40.9288 40.2387 44.3662 35.6744C50.4488 35.2578 56.5689 35.2566 62.6515 35.6769C66.0595 40.2409 69.107 45.0269 71.8094 49.9628C69.1391 54.9412 66.0708 59.7494 62.6863 64.3566ZM76.3388 13.9581C82.5926 17.2267 79.809 28.8352 78.4427 33.8831C74.2811 33.0128 69.7617 32.3653 65.0303 31.9628C62.2737 28.4064 59.4178 25.1724 56.5508 22.3734C60.7543 18.7013 70.1455 10.7215 76.3388 13.9581Z" fill="#53C1DE"/>
</svg>
